<?xml version="1.0" standalone="no"?>
<!DOCTYPE svg PUBLIC "-//W3C//DTD SVG 20010904//EN"
 "http://www.w3.org/TR/2001/REC-SVG-20010904/DTD/svg10.dtd">
<svg version="1.0" xmlns="http://www.w3.org/2000/svg"
 width="920.000000pt" height="483.000000pt" viewBox="0 0 920.000000 483.000000"
 preserveAspectRatio="xMidYMid meet">

<g transform="translate(0.000000,483.000000) scale(0.100000,-0.100000)"
fill="#000000" stroke="none">
<path d="M4596 4809 c-38 -30 -57 -73 -130 -295 l-66 -199 -182 1 c-293 2
-368 -14 -376 -80 -7 -57 46 -108 295 -285 57 -40 105 -77 108 -82 4 -5 -23
-101 -59 -214 -73 -229 -83 -298 -46 -335 24 -24 55 -25 102 -5 30 12 246 162
358 247 l35 27 162 -118 c245 -177 289 -196 338 -146 39 38 32 82 -45 322 -39
119 -67 220 -63 223 5 4 78 58 163 120 181 132 226 172 240 216 14 43 -1 68
-55 90 -33 14 -81 17 -270 19 l-230 2 -70 209 c-74 221 -102 280 -142 295 -33
12 -37 12 -67 -12z"/>
<path d="M3909 3871 c-457 -170 -850 -517 -1078 -951 -251 -479 -295 -1042
-123 -1557 191 -570 655 -1044 1220 -1247 218 -78 412 -110 672 -110 218 0
312 11 502 59 640 163 1177 663 1390 1298 173 515 128 1081 -124 1557 -103
195 -213 343 -370 497 -109 108 -169 157 -297 243 -130 88 -431 234 -447 217
-3 -3 9 -49 27 -104 26 -78 33 -117 35 -191 l2 -93 89 -51 c239 -137 426 -311
568 -528 122 -185 194 -356 242 -570 35 -155 43 -424 19 -580 -72 -454 -293
-821 -656 -1091 -264 -197 -556 -300 -917 -324 l-93 -6 0 49 c0 35 5 54 19 66
28 25 296 125 378 141 81 16 118 32 149 67 36 39 124 178 124 193 0 9 -35 55
-78 104 -80 90 -134 180 -147 241 -18 86 -75 147 -190 201 -74 35 -201 69
-258 69 -32 0 -101 75 -133 145 -14 29 -29 80 -34 111 -5 32 -16 64 -24 72
-33 33 -113 -24 -155 -112 -30 -60 -61 -214 -61 -301 0 -79 -1 -80 -55 -119
-104 -75 -201 -194 -260 -317 -36 -76 -84 -247 -86 -303 -1 -60 -9 -66 -51
-40 -45 29 -47 45 -19 179 44 214 156 405 311 532 70 57 70 57 70 108 0 117
51 306 102 378 38 53 81 86 132 102 45 14 52 14 85 -3 48 -24 70 -57 81 -127
11 -67 49 -151 82 -182 16 -14 43 -23 89 -28 l66 -6 12 128 c30 309 34 317
181 348 174 36 295 87 407 171 144 110 227 262 240 439 l6 81 -34 35 c-32 34
-45 38 -249 88 -118 29 -223 55 -232 57 -9 3 -26 25 -38 50 -30 60 -62 82
-220 147 -136 56 -230 86 -328 106 -63 13 -251 14 -270 2 -11 -6 -2 -28 41
-97 188 -307 297 -608 297 -819 0 -122 -42 -170 -173 -200 -85 -19 -251 -22
-334 -5 -116 24 -241 90 -333 176 l-47 44 -7 -61 c-3 -34 -6 -91 -6 -126 0
-87 -14 -142 -65 -249 -65 -136 -235 -339 -366 -440 -15 -11 -40 -46 -56 -78
l-30 -59 -37 89 c-87 206 -122 416 -113 677 8 249 57 447 163 660 162 325 423
591 735 747 l76 39 6 93 c4 69 14 120 40 196 20 60 30 102 23 102 -6 -1 -45
-14 -87 -29z m901 -1091 c24 -24 25 -38 4 -68 -36 -51 -117 -8 -95 51 16 41
59 49 91 17z m60 -1629 c17 -32 11 -60 -15 -77 -52 -34 -111 31 -70 76 23 26
71 26 85 1z"/>
<path d="M3995 3146 c-77 -44 -174 -132 -214 -195 -57 -88 -112 -275 -136
-456 l-6 -51 83 -80 c89 -85 180 -140 283 -170 118 -34 367 -14 403 33 6 9 12
44 12 77 -1 131 -67 349 -167 551 -41 83 -185 325 -193 325 -3 0 -32 -16 -65
-34z"/>
</g>
</svg>
